<?xml version="1.0" standalone="no"?>
<!DOCTYPE svg PUBLIC "-//W3C//DTD SVG 20010904//EN"
 "http://www.w3.org/TR/2001/REC-SVG-20010904/DTD/svg10.dtd">
<svg version="1.0" xmlns="http://www.w3.org/2000/svg"
 width="1328.000000pt" height="1328.000000pt" viewBox="0 0 1328.000000 1328.000000"
 preserveAspectRatio="xMidYMid meet">
<metadata>
Created by potrace 1.16, written by Peter Selinger 2001-2019
</metadata>
<g transform="translate(0.000000,1328.000000) scale(0.100000,-0.100000)"
fill="#000000" stroke="none">
<path d="M6410 11514 c-757 -45 -1464 -249 -2120 -612 -74 -41 -157 -89 -185
-107 -27 -18 -95 -62 -150 -97 -424 -277 -884 -713 -1207 -1143 -402 -535
-698 -1183 -832 -1820 -261 -1245 -55 -2499 587 -3565 129 -215 325 -484 491
-675 113 -129 381 -393 516 -506 714 -601 1576 -979 2509 -1099 966 -125 1958
46 2823 487 661 336 1225 809 1667 1398 491 653 817 1458 925 2287 31 233 31
271 5 318 -58 104 -205 107 -263 6 -17 -28 -26 -65 -31 -116 -39 -433 -159
-914 -330 -1324 -423 -1017 -1191 -1837 -2168 -2317 -487 -239 -977 -379
-1562 -446 -203 -23 -667 -23 -885 1 -860 92 -1617 387 -2295 896 -866 650
-1482 1632 -1699 2710 -67 334 -90 613 -83 993 9 474 66 833 202 1271 396
1273 1421 2356 2692 2845 542 208 1058 303 1623 300 275 -2 421 -11 620 -39
693 -99 1318 -341 1927 -747 138 -92 173 -104 238 -78 106 40 134 174 53 252
-44 41 -226 164 -363 245 -629 371 -1297 590 -2015 663 -151 15 -560 26 -690
19z"/>
<path d="M10275 10325 c-30 -11 -112 -87 -347 -322 -169 -169 -315 -323 -324
-342 -47 -97 12 -210 120 -228 71 -11 89 3 407 323 167 168 314 322 327 342
18 29 22 48 19 88 -8 108 -104 174 -202 139z"/>
<path d="M4940 9489 c-143 -5 -174 -9 -232 -31 -184 -69 -323 -224 -372 -414
-14 -56 -16 -295 -16 -2327 0 -1597 3 -2282 11 -2319 34 -164 163 -332 309
-400 141 -67 9 -63 1975 -63 l1790 0 62 21 c186 64 319 191 384 367 23 62 24
65 27 622 l3 561 -23 34 c-60 90 -199 93 -261 6 -22 -31 -22 -33 -27 -556 -5
-506 -6 -527 -26 -570 -30 -65 -69 -107 -128 -138 l-51 -27 -1740 -3 c-1951
-3 -1807 -8 -1892 71 -24 22 -54 59 -66 82 l-22 40 -3 2235 c-2 1563 0 2250 8
2285 15 73 72 143 145 180 l60 30 1347 3 1347 2 3 -397 c3 -394 3 -399 27
-450 26 -58 86 -120 153 -155 42 -23 49 -23 438 -28 l395 -5 5 -441 c5 -461 4
-446 47 -492 17 -18 78 -42 107 -42 43 0 102 29 126 62 32 44 35 101 35 663 0
464 0 471 -22 518 -12 26 -32 60 -43 75 -56 71 -947 955 -980 972 -21 11 -67
24 -103 30 -68 11 -2488 10 -2797 -1z m3279 -851 l166 -168 -258 0 -257 0 0
239 c0 132 3 247 7 257 5 14 23 0 91 -72 47 -49 160 -164 251 -256z"/>
<path d="M10537 9365 c-71 -25 -107 -75 -107 -149 0 -39 12 -65 86 -188 48
-79 101 -157 119 -175 61 -59 151 -54 214 11 28 29 35 45 39 89 4 53 2 57 -79
193 -85 142 -137 210 -167 218 -50 13 -71 13 -105 1z"/>
<path d="M10936 8481 c-42 -28 -69 -77 -69 -125 0 -39 81 -278 120 -356 50
-96 197 -96 261 0 34 50 26 104 -39 280 -42 115 -61 153 -90 183 -34 34 -41
37 -95 37 -41 0 -68 -6 -88 -19z"/>
<path d="M5140 8070 c-15 -16 -31 -41 -34 -56 -10 -37 11 -90 43 -114 26 -18
46 -19 299 -20 294 -2 316 2 340 55 15 32 16 90 2 116 -25 45 -52 49 -345 49
l-277 0 -28 -30z"/>
<path d="M6094 8066 c-26 -26 -34 -42 -34 -70 0 -42 22 -91 48 -105 19 -10
155 -14 439 -12 l183 1 32 29 c29 26 33 35 33 81 0 46 -4 55 -33 81 l-32 29
-301 0 -301 0 -34 -34z"/>
<path d="M5147 7570 c-36 -29 -52 -81 -37 -125 6 -19 23 -44 37 -55 25 -20 38
-20 1197 -20 1137 0 1172 1 1202 19 63 38 66 134 7 181 -25 20 -38 20 -1203
20 -1165 0 -1178 0 -1203 -20z"/>
<path d="M11189 7547 c-47 -32 -79 -83 -79 -126 1 -20 11 -107 24 -194 25
-172 36 -198 97 -229 83 -43 182 -8 214 75 15 40 15 52 -5 207 -24 189 -43
242 -100 272 -48 25 -109 23 -151 -5z"/>
<path d="M5190 7080 c-94 -22 -119 -144 -41 -197 l34 -23 1164 0 c1300 0 1204
-5 1239 69 15 31 15 40 3 75 -8 21 -27 49 -42 60 -28 21 -29 21 -1175 23 -631
0 -1163 -3 -1182 -7z"/>
<path d="M9225 7063 c-33 -8 -70 -41 -423 -366 -186 -172 -419 -386 -517 -477
-98 -91 -238 -219 -309 -284 -72 -65 -216 -198 -321 -294 -104 -97 -203 -187
-218 -201 l-28 -26 -27 30 c-15 17 -84 96 -153 175 -564 645 -567 647 -613
665 -103 39 -216 -35 -216 -142 0 -77 -14 -57 275 -388 72 -82 153 -175 180
-205 28 -31 102 -116 165 -190 226 -263 263 -302 304 -321 52 -23 102 -24 143
-1 18 9 131 108 250 218 120 111 333 306 473 435 140 128 314 287 385 353 72
67 155 144 185 172 30 28 91 84 135 125 44 41 157 144 250 229 254 231 261
239 276 304 11 52 11 58 -12 103 -36 70 -109 104 -184 86z"/>
<path d="M5173 6565 c-75 -32 -91 -121 -33 -180 l30 -30 415 -3 c457 -3 463
-2 498 57 21 35 21 61 3 105 -27 65 -37 66 -483 66 -319 -1 -404 -4 -430 -15z"/>
<path d="M5159 6055 c-15 -8 -34 -31 -44 -52 -16 -33 -16 -41 -4 -77 8 -21 27
-49 42 -60 28 -21 38 -21 452 -21 l424 0 30 29 c38 37 48 81 28 129 -29 67
-28 67 -489 67 -338 -1 -418 -3 -439 -15z"/>
<path d="M5159 5545 c-36 -20 -63 -78 -55 -120 8 -38 56 -85 89 -86 12 0 204
-1 425 -1 387 -1 405 0 430 19 15 11 33 31 40 44 19 36 8 97 -22 128 l-26 26
-428 2 c-356 2 -431 0 -453 -12z"/>
</g>
</svg>
